<?xml version="1.0" encoding="utf-8"?>
<!-- Generator: Adobe Illustrator 22.0.1, SVG Export Plug-In . SVG Version: 6.00 Build 0)  -->
<svg version="1.1" id="Layer_1" xmlns="http://www.w3.org/2000/svg" xmlns:xlink="http://www.w3.org/1999/xlink" x="0px" y="0px"
	 viewBox="0 0 152.1 154" style="enable-background:new 0 0 152.1 154;" xml:space="preserve">
<style type="text/css">
	.st0{fill:#fff;}
	.st1{fill:#F15A23;}
</style>
<g id="Layer_2_1_">
	<g id="Layer_2-2">
		<path class="st0" d="M62.7,61.5c-13.6,13.4-4.4,37.4,16.6,37.4c8.3,0,14.6-3.5,16.9-11H79.1c-6.5,0-9.8-5.8-9.3-11.5h40.1
			c2,22.3-15.5,34.4-32.1,34.3c-11.4-0.2-22.9-5.7-29.2-16.8c-7-12.1-5.9-27.2,2.7-38.1c5.9-7.5,15.4-12.6,27.3-12.6
			c17.6,0,34.2,10.9,23,24.4C97.9,56.2,74.8,49.6,62.7,61.5z"/>
		<path class="st1" d="M77,0C34.5,0,0,34.5,0,77s34.5,77,77,77s77-34.5,77-77S119.5,0,77,0z M77,126c-27.1,0-49-21.9-49-49
			s21.9-49,49-49s49,21.9,49,49S104.1,126,77,126L77,126z"/>
	</g>
</g>
</svg>
